# xmcd
#
# Track frame offsets:
#	150
#	18135
#	30105
#	43140
#	60583
#	78005
#	94570
#	109683
#	123203
#	137750
#	150935
#	166333
#	180510
#	200135
#	213873
#	230613
#
# Disc length: 3232 seconds
#
# Revision: 4278124461
# Processed by: cddbd v1.5.2PL0 Copyright (c) Steve Scherf et al.
# Submitted via: EZCDAudioConverter 6.0.2.1
#
DISCID=b90c9e10
DTITLE=Various Artist - Old Style Love Song 15
DYEAR=1900
DGENRE=Unknown
TTITLE0=Bobby Goldsboro - Honey
TTITLE1=Lynn Anderson - Hello Darling
TTITLE2=Eddy Amond - I Really Don't Want to Know
TTITLE3=Soundtrack - Sunrise, Sunset
TTITLE4=Simon and Garfunkel - Mrs Robinson
TTITLE5=Dionne Warwick - Valley of the Dolls
TTITLE6=Engelbert Humperdink - A Man Without Love
TTITLE7=Bee Gees - I Gotta get a Message to You
TTITLE8=Jeannie C. Riley - Harper Valley PTA
TTITLE9=Tommy Roe - Dizzy
TTITLE10=Tom Jones - Delilah
TTITLE11=Credence Clearwater Revival - Proud Mary
TTITLE12=Elvis Presley - Suspicious Minds
TTITLE13=The Beatles - Something
TTITLE14=Glen Campbell - Yesterday When I Was Young
TTITLE15=Andy Williams - The Impossible Dream_Andy Williams
EXTD=
EXTT0=
EXTT1=
EXTT2=
EXTT3=
EXTT4=
EXTT5=
EXTT6=
EXTT7=
EXTT8=
EXTT9=
EXTT10=
EXTT11=
EXTT12=
EXTT13=
EXTT14=
EXTT15=
PLAYORDER=
